<mxfile host="app.diagrams.net" modified="2023-05-01T23:37:18.736Z" agent="Mozilla/5.0 (X11; Linux x86_64) AppleWebKit/537.36 (KHTML, like Gecko) Chrome/111.0.0.0 Safari/537.36" etag="c9G9DfP_xeUn3vTnGkxl" version="21.2.3" type="device">
  <diagram name="Page-1" id="f0Q_1zMVd-oimIQIDH3b">
    <mxGraphModel dx="1434" dy="709" grid="0" gridSize="10" guides="1" tooltips="1" connect="1" arrows="1" fold="1" page="1" pageScale="1" pageWidth="850" pageHeight="1100" background="#ffffff" math="0" shadow="0">
      <root>
        <mxCell id="0" />
        <mxCell id="1" parent="0" />
        <mxCell id="d2huy8yM15NUy1r3Zmgb-20" value="" style="edgeStyle=orthogonalEdgeStyle;rounded=0;orthogonalLoop=1;jettySize=auto;html=1;strokeColor=#788AA3;fontColor=default;fillColor=#B2C9AB;labelBackgroundColor=none;fontFamily=Product Sans;fontSource=https%3A%2F%2Ffonts.googleapis.com%2Fcss%3Ffamily%3DProduct%2BSans;fontSize=15;" edge="1" parent="1" source="d2huy8yM15NUy1r3Zmgb-22" target="d2huy8yM15NUy1r3Zmgb-12">
          <mxGeometry relative="1" as="geometry" />
        </mxCell>
        <mxCell id="d2huy8yM15NUy1r3Zmgb-2" value="Web Server" style="verticalAlign=top;align=left;shape=cube;size=10;direction=south;fontStyle=0;html=1;boundedLbl=1;spacingLeft=5;whiteSpace=wrap;strokeColor=#788AA3;fontColor=#46495D;fillColor=#B2C9AB;labelBackgroundColor=none;fontFamily=Product Sans;fontSource=https%3A%2F%2Ffonts.googleapis.com%2Fcss%3Ffamily%3DProduct%2BSans;fontSize=15;" vertex="1" parent="1">
          <mxGeometry x="61" y="95" width="310" height="302" as="geometry" />
        </mxCell>
        <mxCell id="d2huy8yM15NUy1r3Zmgb-3" value="API Manager&lt;br style=&quot;font-size: 15px;&quot;&gt;&lt;br style=&quot;font-size: 15px;&quot;&gt;app.js" style="verticalAlign=top;align=center;shape=cube;size=10;direction=south;html=1;boundedLbl=1;spacingLeft=5;whiteSpace=wrap;strokeColor=#788AA3;fontColor=#46495D;fillColor=#D5E8D4;labelBackgroundColor=none;fontFamily=Product Sans;fontSource=https%3A%2F%2Ffonts.googleapis.com%2Fcss%3Ffamily%3DProduct%2BSans;fontSize=15;" vertex="1" parent="d2huy8yM15NUy1r3Zmgb-2">
          <mxGeometry width="100" height="80" relative="1" as="geometry">
            <mxPoint x="33" y="54" as="offset" />
          </mxGeometry>
        </mxCell>
        <mxCell id="d2huy8yM15NUy1r3Zmgb-7" value="Database&amp;nbsp;&lt;br style=&quot;font-size: 15px;&quot;&gt;Manager&lt;br style=&quot;font-size: 15px;&quot;&gt;&lt;br style=&quot;font-size: 15px;&quot;&gt;db.js" style="verticalAlign=top;align=center;shape=cube;size=10;direction=south;html=1;boundedLbl=1;spacingLeft=5;whiteSpace=wrap;strokeColor=#788AA3;fontColor=#46495D;fillColor=#D5E8D4;labelBackgroundColor=none;fontFamily=Product Sans;fontSource=https%3A%2F%2Ffonts.googleapis.com%2Fcss%3Ffamily%3DProduct%2BSans;fontSize=15;" vertex="1" parent="d2huy8yM15NUy1r3Zmgb-2">
          <mxGeometry width="105" height="101" relative="1" as="geometry">
            <mxPoint x="165" y="52" as="offset" />
          </mxGeometry>
        </mxCell>
        <mxCell id="d2huy8yM15NUy1r3Zmgb-11" value="PHP and Node files&lt;br&gt;.php" style="verticalAlign=top;align=center;shape=cube;size=10;direction=south;html=1;boundedLbl=1;spacingLeft=5;whiteSpace=wrap;strokeColor=#788AA3;fontColor=#46495D;fillColor=#D5E8D4;labelBackgroundColor=none;fontFamily=Product Sans;fontSource=https%3A%2F%2Ffonts.googleapis.com%2Fcss%3Ffamily%3DProduct%2BSans;fontSize=15;" vertex="1" parent="d2huy8yM15NUy1r3Zmgb-2">
          <mxGeometry width="101" height="96" relative="1" as="geometry">
            <mxPoint x="92" y="173" as="offset" />
          </mxGeometry>
        </mxCell>
        <mxCell id="d2huy8yM15NUy1r3Zmgb-4" value="Deployment Diagram for Attendence Assistant" style="text;html=1;align=center;verticalAlign=middle;resizable=0;points=[];autosize=1;strokeColor=none;fillColor=none;fontColor=#46495D;labelBackgroundColor=none;fontFamily=Product Sans;fontSource=https%3A%2F%2Ffonts.googleapis.com%2Fcss%3Ffamily%3DProduct%2BSans;fontSize=24;" vertex="1" parent="1">
          <mxGeometry x="210" y="20" width="500" height="41" as="geometry" />
        </mxCell>
        <mxCell id="d2huy8yM15NUy1r3Zmgb-5" value="" style="sketch=0;pointerEvents=1;shadow=0;dashed=0;html=1;strokeColor=none;labelPosition=center;verticalLabelPosition=bottom;verticalAlign=top;align=center;fillColor=#B2C9AB;shape=mxgraph.mscae.intune.device_os;fontColor=#46495D;labelBackgroundColor=none;fontFamily=Product Sans;fontSource=https%3A%2F%2Ffonts.googleapis.com%2Fcss%3Ffamily%3DProduct%2BSans;fontSize=15;" vertex="1" parent="1">
          <mxGeometry x="536" y="609" width="165.62" height="169" as="geometry" />
        </mxCell>
        <mxCell id="d2huy8yM15NUy1r3Zmgb-6" value="Client Device" style="text;html=1;align=center;verticalAlign=middle;resizable=0;points=[];autosize=1;strokeColor=none;fillColor=none;fontColor=#46495D;labelBackgroundColor=none;fontFamily=Product Sans;fontSource=https%3A%2F%2Ffonts.googleapis.com%2Fcss%3Ffamily%3DProduct%2BSans;fontSize=21;" vertex="1" parent="1">
          <mxGeometry x="498" y="557" width="138" height="37" as="geometry" />
        </mxCell>
        <mxCell id="d2huy8yM15NUy1r3Zmgb-12" value="Database Server" style="verticalAlign=top;align=left;shape=cube;size=10;direction=south;fontStyle=0;html=1;boundedLbl=1;spacingLeft=5;whiteSpace=wrap;strokeColor=#788AA3;fontColor=#46495D;fillColor=#B2C9AB;labelBackgroundColor=none;fontFamily=Product Sans;fontSource=https%3A%2F%2Ffonts.googleapis.com%2Fcss%3Ffamily%3DProduct%2BSans;fontSize=15;" vertex="1" parent="1">
          <mxGeometry x="62" y="491" width="310" height="302" as="geometry" />
        </mxCell>
        <mxCell id="d2huy8yM15NUy1r3Zmgb-13" value="Query Processor" style="verticalAlign=top;align=center;shape=cube;size=10;direction=south;html=1;boundedLbl=1;spacingLeft=5;whiteSpace=wrap;strokeColor=#788AA3;fontColor=#46495D;fillColor=#D5E8D4;labelBackgroundColor=none;fontFamily=Product Sans;fontSource=https%3A%2F%2Ffonts.googleapis.com%2Fcss%3Ffamily%3DProduct%2BSans;fontSize=15;" vertex="1" parent="d2huy8yM15NUy1r3Zmgb-12">
          <mxGeometry width="100" height="80" relative="1" as="geometry">
            <mxPoint x="10" y="50" as="offset" />
          </mxGeometry>
        </mxCell>
        <mxCell id="d2huy8yM15NUy1r3Zmgb-14" value="Data" style="verticalAlign=top;align=center;shape=cube;size=10;direction=south;html=1;boundedLbl=1;spacingLeft=5;whiteSpace=wrap;strokeColor=#788AA3;fontColor=#46495D;fillColor=#D5E8D4;labelBackgroundColor=none;fontFamily=Product Sans;fontSource=https%3A%2F%2Ffonts.googleapis.com%2Fcss%3Ffamily%3DProduct%2BSans;fontSize=15;" vertex="1" parent="d2huy8yM15NUy1r3Zmgb-12">
          <mxGeometry width="100" height="80" relative="1" as="geometry">
            <mxPoint x="174" y="50" as="offset" />
          </mxGeometry>
        </mxCell>
        <mxCell id="d2huy8yM15NUy1r3Zmgb-15" value="API Manager" style="verticalAlign=top;align=center;shape=cube;size=10;direction=south;html=1;boundedLbl=1;spacingLeft=5;whiteSpace=wrap;strokeColor=#788AA3;fontColor=#46495D;fillColor=#D5E8D4;labelBackgroundColor=none;fontFamily=Product Sans;fontSource=https%3A%2F%2Ffonts.googleapis.com%2Fcss%3Ffamily%3DProduct%2BSans;fontSize=15;" vertex="1" parent="d2huy8yM15NUy1r3Zmgb-12">
          <mxGeometry width="121" height="91" relative="1" as="geometry">
            <mxPoint x="82" y="164" as="offset" />
          </mxGeometry>
        </mxCell>
        <mxCell id="d2huy8yM15NUy1r3Zmgb-24" style="edgeStyle=orthogonalEdgeStyle;rounded=0;orthogonalLoop=1;jettySize=auto;html=1;strokeColor=#788AA3;fontColor=default;fillColor=#B2C9AB;labelBackgroundColor=none;fontFamily=Product Sans;fontSource=https%3A%2F%2Ffonts.googleapis.com%2Fcss%3Ffamily%3DProduct%2BSans;fontSize=15;" edge="1" parent="1" source="d2huy8yM15NUy1r3Zmgb-16" target="d2huy8yM15NUy1r3Zmgb-2">
          <mxGeometry relative="1" as="geometry" />
        </mxCell>
        <mxCell id="d2huy8yM15NUy1r3Zmgb-26" style="edgeStyle=orthogonalEdgeStyle;rounded=0;orthogonalLoop=1;jettySize=auto;html=1;strokeColor=#788AA3;fontColor=default;fillColor=#B2C9AB;labelBackgroundColor=none;fontFamily=Product Sans;fontSource=https%3A%2F%2Ffonts.googleapis.com%2Fcss%3Ffamily%3DProduct%2BSans;fontSize=15;" edge="1" parent="1" source="d2huy8yM15NUy1r3Zmgb-16" target="d2huy8yM15NUy1r3Zmgb-6">
          <mxGeometry relative="1" as="geometry" />
        </mxCell>
        <mxCell id="d2huy8yM15NUy1r3Zmgb-16" value="Main App" style="verticalAlign=top;align=left;shape=cube;size=10;direction=south;fontStyle=0;html=1;boundedLbl=1;spacingLeft=5;whiteSpace=wrap;strokeColor=#788AA3;fontColor=#46495D;fillColor=#B2C9AB;labelBackgroundColor=none;fontFamily=Product Sans;fontSource=https%3A%2F%2Ffonts.googleapis.com%2Fcss%3Ffamily%3DProduct%2BSans;fontSize=15;" vertex="1" parent="1">
          <mxGeometry x="511" y="95" width="310" height="302" as="geometry" />
        </mxCell>
        <mxCell id="d2huy8yM15NUy1r3Zmgb-17" value="Android or IOS Native Files&lt;br style=&quot;font-size: 15px;&quot;&gt;.apk, .obb" style="verticalAlign=top;align=center;shape=cube;size=10;direction=south;html=1;boundedLbl=1;spacingLeft=5;whiteSpace=wrap;strokeColor=#788AA3;fontColor=#46495D;fillColor=#D5E8D4;labelBackgroundColor=none;fontFamily=Product Sans;fontSource=https%3A%2F%2Ffonts.googleapis.com%2Fcss%3Ffamily%3DProduct%2BSans;fontSize=15;" vertex="1" parent="d2huy8yM15NUy1r3Zmgb-16">
          <mxGeometry width="104" height="109" relative="1" as="geometry">
            <mxPoint x="38" y="50" as="offset" />
          </mxGeometry>
        </mxCell>
        <mxCell id="d2huy8yM15NUy1r3Zmgb-18" value="Processed Files of images" style="verticalAlign=top;align=center;shape=cube;size=10;direction=south;html=1;boundedLbl=1;spacingLeft=5;whiteSpace=wrap;strokeColor=#788AA3;fontColor=#46495D;fillColor=#D5E8D4;labelBackgroundColor=none;fontFamily=Product Sans;fontSource=https%3A%2F%2Ffonts.googleapis.com%2Fcss%3Ffamily%3DProduct%2BSans;fontSize=15;" vertex="1" parent="d2huy8yM15NUy1r3Zmgb-16">
          <mxGeometry width="100" height="80" relative="1" as="geometry">
            <mxPoint x="175" y="65" as="offset" />
          </mxGeometry>
        </mxCell>
        <mxCell id="d2huy8yM15NUy1r3Zmgb-19" value="Temporary Images&lt;br style=&quot;font-size: 15px;&quot;&gt;.jpg" style="verticalAlign=top;align=center;shape=cube;size=10;direction=south;html=1;boundedLbl=1;spacingLeft=5;whiteSpace=wrap;strokeColor=#788AA3;fontColor=#46495D;fillColor=#D5E8D4;labelBackgroundColor=none;fontFamily=Product Sans;fontSource=https%3A%2F%2Ffonts.googleapis.com%2Fcss%3Ffamily%3DProduct%2BSans;fontSize=15;" vertex="1" parent="d2huy8yM15NUy1r3Zmgb-16">
          <mxGeometry width="100" height="80" relative="1" as="geometry">
            <mxPoint x="105" y="183" as="offset" />
          </mxGeometry>
        </mxCell>
        <mxCell id="d2huy8yM15NUy1r3Zmgb-23" value="" style="edgeStyle=orthogonalEdgeStyle;rounded=0;orthogonalLoop=1;jettySize=auto;html=1;strokeColor=#788AA3;fontColor=default;fillColor=#B2C9AB;labelBackgroundColor=none;fontFamily=Product Sans;fontSource=https%3A%2F%2Ffonts.googleapis.com%2Fcss%3Ffamily%3DProduct%2BSans;fontSize=15;" edge="1" parent="1" source="d2huy8yM15NUy1r3Zmgb-2" target="d2huy8yM15NUy1r3Zmgb-22">
          <mxGeometry relative="1" as="geometry">
            <mxPoint x="216" y="397" as="sourcePoint" />
            <mxPoint x="216" y="488" as="targetPoint" />
          </mxGeometry>
        </mxCell>
        <mxCell id="d2huy8yM15NUy1r3Zmgb-22" value="API Calls Via HTTPS" style="text;html=1;align=center;verticalAlign=middle;resizable=0;points=[];autosize=1;strokeColor=none;fillColor=none;fontColor=#46495D;labelBackgroundColor=none;fontFamily=Product Sans;fontSource=https%3A%2F%2Ffonts.googleapis.com%2Fcss%3Ffamily%3DProduct%2BSans;fontSize=15;" vertex="1" parent="1">
          <mxGeometry x="145" y="434" width="143" height="30" as="geometry" />
        </mxCell>
        <mxCell id="d2huy8yM15NUy1r3Zmgb-25" value="HTTPS &amp;amp; TCP/IP" style="text;html=1;align=center;verticalAlign=middle;resizable=0;points=[];autosize=1;strokeColor=none;fillColor=none;fontColor=#46495D;labelBackgroundColor=none;fontFamily=Product Sans;fontSource=https%3A%2F%2Ffonts.googleapis.com%2Fcss%3Ffamily%3DProduct%2BSans;fontSize=15;" vertex="1" parent="1">
          <mxGeometry x="393" y="215" width="121" height="30" as="geometry" />
        </mxCell>
        <mxCell id="d2huy8yM15NUy1r3Zmgb-27" value="Deployed" style="text;html=1;align=center;verticalAlign=middle;resizable=0;points=[];autosize=1;strokeColor=none;fillColor=none;fontColor=#46495D;labelBackgroundColor=none;fontFamily=Product Sans;fontSource=https%3A%2F%2Ffonts.googleapis.com%2Fcss%3Ffamily%3DProduct%2BSans;fontSize=15;" vertex="1" parent="1">
          <mxGeometry x="677" y="438" width="80" height="30" as="geometry" />
        </mxCell>
      </root>
    </mxGraphModel>
  </diagram>
</mxfile>
